<svg xmlns="http://www.w3.org/2000/svg" width="101" height="16" fill="none">
    <path fill="#171717"
          d="M4.59 16c-1.502 0-2.629-.39-3.38-1.171C.46 14.033.056 12.926 0 11.506h2.42c.056.738.258 1.3.606 1.683.347.369.87.553 1.565.553.375 0 .702-.05.98-.149a1.66 1.66 0 0 0 .73-.553c.196-.256.342-.59.439-1.001.097-.426.146-.959.146-1.598V.857H9.39v9.584c0 2.002-.41 3.43-1.231 4.281-.82.852-2.01 1.278-3.568 1.278ZM14.91 16c-1.307 0-2.294-.383-2.962-1.15-.668-.781-1.002-1.967-1.002-3.557V4.478h2.296v6.602c0 .951.187 1.668.563 2.151.39.483 1.002.724 1.836.724.46 0 .849-.078 1.169-.234.334-.156.605-.37.814-.639a2.69 2.69 0 0 0 .459-.916 3.61 3.61 0 0 0 .167-1.086V4.478h2.295v11.288h-2.128v-1.917c-.265.582-.696 1.086-1.294 1.512-.585.426-1.322.639-2.212.639ZM25.965 16c-.821 0-1.524-.092-2.108-.277-.57-.184-1.05-.433-1.44-.745a3.412 3.412 0 0 1-.876-1.087 4.46 4.46 0 0 1-.376-1.32h2.296c.097.398.334.731.71 1.001.375.256.973.383 1.794.383.918 0 1.565-.127 1.94-.383.376-.256.564-.59.564-1.001a.948.948 0 0 0-.146-.511c-.098-.17-.258-.32-.48-.447-.209-.143-.494-.27-.856-.384a8.146 8.146 0 0 0-1.356-.277 11.022 11.022 0 0 1-1.711-.362 4.6 4.6 0 0 1-1.315-.66 2.788 2.788 0 0 1-.835-.98c-.194-.383-.292-.845-.292-1.384 0-.455.09-.88.272-1.278.18-.412.459-.767.834-1.065.376-.298.842-.532 1.398-.703.57-.184 1.232-.277 1.983-.277.723 0 1.35.093 1.878.277.528.185.966.433 1.314.746.362.312.633.681.814 1.107.195.412.32.845.376 1.3H28.05c-.11-.44-.34-.782-.688-1.023-.334-.241-.8-.362-1.398-.362-.821 0-1.391.128-1.711.383-.32.256-.48.554-.48.895 0 .199.041.376.125.532.083.156.222.298.417.426.195.114.46.22.793.32.348.1.786.177 1.315.234.64.085 1.224.213 1.753.383.542.17 1.001.398 1.377.682.39.27.688.61.897 1.022.209.398.313.866.313 1.406a3.058 3.058 0 0 1-1.21 2.45c-.39.297-.89.539-1.503.723-.598.17-1.293.256-2.086.256ZM35.669 15.872c-1.266 0-2.177-.277-2.734-.83-.543-.554-.814-1.449-.814-2.684V6.48h-1.565V4.478h1.565V1.922h2.296v2.556h2.817V6.48h-2.817v5.559c0 .667.118 1.135.354 1.405.25.256.724.384 1.42.384.417 0 .834-.022 1.251-.064v2.002c-.264.028-.535.05-.813.064a9.561 9.561 0 0 1-.96.042Z"/>
    <path fill="url(#a)" d="M37.884.639h9.703v2.215h-7.199v4.238h6.573v2.215h-6.573v6.24h-2.504V.64Z"/>
    <path fill="url(#b)"
          d="M48.416 4.26h2.296v11.288h-2.296V4.26Zm1.148-1.278c-.431 0-.786-.135-1.064-.405-.265-.284-.397-.646-.397-1.086 0-.44.132-.795.397-1.065.278-.284.633-.426 1.064-.426.431 0 .779.142 1.043.426.278.27.418.625.418 1.065 0 .44-.14.802-.418 1.086-.264.27-.612.405-1.043.405Z"/>
    <path fill="url(#c)"
          d="M52.162 4.26h2.129v1.895c.264-.568.695-1.065 1.294-1.49.598-.427 1.37-.64 2.316-.64 1.35 0 2.365.377 3.046 1.13.682.738 1.023 1.824 1.023 3.258v7.135h-2.295V8.945c0-.951-.195-1.668-.585-2.15-.39-.484-1.03-.725-1.92-.725-.486 0-.904.085-1.252.256-.334.156-.612.369-.834.639-.209.255-.369.56-.48.915-.098.341-.146.696-.146 1.065v6.603h-2.296V4.26Z"/>
    <path fill="url(#d)" d="M65.113 2.854h-4.904V.639h12.312v2.215h-4.904v12.694h-2.504V2.854Z"/>
    <path fill="url(#e)"
          d="M75.651 15.782a6.313 6.313 0 0 1-2.086-.34 5.087 5.087 0 0 1-1.732-1.066c-.487-.482-.876-1.086-1.169-1.81-.292-.724-.438-1.576-.438-2.556v-.426c0-.937.14-1.753.418-2.449.278-.696.653-1.27 1.126-1.725a4.692 4.692 0 0 1 1.67-1.044 5.828 5.828 0 0 1 2.003-.34c1.683 0 2.97.46 3.86 1.384.904.923 1.357 2.243 1.357 3.961v1.193h-8.097c.014.582.105 1.08.272 1.49.18.399.41.725.688.98.292.242.62.42.98.533.376.114.759.17 1.148.17.794 0 1.37-.127 1.733-.383.375-.255.632-.59.772-1h2.295c-.223 1.12-.772 1.973-1.648 2.555-.863.582-1.913.873-3.151.873Zm-.104-9.712c-.39 0-.765.05-1.127.15-.347.099-.66.262-.939.489-.264.213-.48.497-.646.852-.167.34-.258.76-.272 1.257h5.801c-.014-.526-.097-.966-.25-1.32a2.096 2.096 0 0 0-.584-.853 2.152 2.152 0 0 0-.898-.447 4.38 4.38 0 0 0-1.085-.128Z"/>
    <path fill="url(#f)"
          d="M85.878 15.782a6.195 6.195 0 0 1-2.087-.34 4.601 4.601 0 0 1-1.648-1.087c-.46-.483-.821-1.086-1.085-1.81-.265-.724-.397-1.57-.397-2.535v-.426c0-.908.14-1.71.418-2.406.278-.696.653-1.278 1.126-1.747a4.692 4.692 0 0 1 1.67-1.044 5.629 5.629 0 0 1 2.003-.362c.723 0 1.363.1 1.92.299a4.12 4.12 0 0 1 1.44.83c.403.341.723.746.96 1.214.236.469.396.973.48 1.512H88.34a2.685 2.685 0 0 0-.75-1.299c-.363-.34-.933-.51-1.712-.51-.39 0-.758.07-1.106.212a2.35 2.35 0 0 0-.918.618c-.264.284-.473.653-.626 1.107-.153.44-.23.966-.23 1.576v.426c0 .668.077 1.243.23 1.726.153.468.362.851.626 1.15.264.298.57.518.918.66.348.128.716.192 1.106.192 1.294 0 2.115-.604 2.462-1.81h2.337a5.082 5.082 0 0 1-.584 1.618 4.247 4.247 0 0 1-1.022 1.214 4.848 4.848 0 0 1-1.44.767 5.82 5.82 0 0 1-1.753.255Z"/>
    <path fill="url(#g)"
          d="M91.192.639h2.296v5.41c.125-.256.285-.504.48-.746.195-.255.431-.475.71-.66a4.16 4.16 0 0 1 .98-.447c.376-.114.8-.17 1.273-.17 1.35 0 2.365.376 3.047 1.128.681.739 1.022 1.825 1.022 3.259v7.135h-2.295V8.945c0-.951-.195-1.668-.585-2.15-.39-.484-1.03-.725-1.92-.725-.486 0-.904.085-1.251.256-.334.156-.612.369-.835.639-.209.255-.369.56-.48.915-.097.341-.146.696-.146 1.065v6.603h-2.296V.639Z"/>
    <defs>
        <linearGradient id="a" x1="25.958" x2="114.994" y1="-37.973" y2="20.909" gradientUnits="userSpaceOnUse">
            <stop stop-color="#8D8DDF"/>
            <stop offset="1" stop-color="#009"/>
        </linearGradient>
        <linearGradient id="b" x1="25.958" x2="114.994" y1="-37.973" y2="20.909" gradientUnits="userSpaceOnUse">
            <stop stop-color="#8D8DDF"/>
            <stop offset="1" stop-color="#009"/>
        </linearGradient>
        <linearGradient id="c" x1="25.958" x2="114.994" y1="-37.973" y2="20.909" gradientUnits="userSpaceOnUse">
            <stop stop-color="#8D8DDF"/>
            <stop offset="1" stop-color="#009"/>
        </linearGradient>
        <linearGradient id="d" x1="25.958" x2="114.994" y1="-37.973" y2="20.909" gradientUnits="userSpaceOnUse">
            <stop stop-color="#8D8DDF"/>
            <stop offset="1" stop-color="#009"/>
        </linearGradient>
        <linearGradient id="e" x1="25.958" x2="114.994" y1="-37.973" y2="20.909" gradientUnits="userSpaceOnUse">
            <stop stop-color="#8D8DDF"/>
            <stop offset="1" stop-color="#009"/>
        </linearGradient>
        <linearGradient id="f" x1="25.958" x2="114.994" y1="-37.973" y2="20.909" gradientUnits="userSpaceOnUse">
            <stop stop-color="#8D8DDF"/>
            <stop offset="1" stop-color="#009"/>
        </linearGradient>
        <linearGradient id="g" x1="25.958" x2="114.994" y1="-37.973" y2="20.909" gradientUnits="userSpaceOnUse">
            <stop stop-color="#8D8DDF"/>
            <stop offset="1" stop-color="#009"/>
        </linearGradient>
    </defs>
</svg>